<mxfile host="app.diagrams.net" modified="2024-09-24T12:54:30.723Z" agent="Mozilla/5.0 (X11; Linux x86_64; rv:109.0) Gecko/20100101 Firefox/115.0" etag="yWf85jncncOQnOUpKeVy" version="24.4.14" type="device">
  <diagram name="Page-1" id="iV_W_lz2NL-52pzlHi-W">
    <mxGraphModel dx="1118" dy="615" grid="1" gridSize="10" guides="1" tooltips="1" connect="1" arrows="1" fold="1" page="1" pageScale="1" pageWidth="850" pageHeight="1100" math="0" shadow="0">
      <root>
        <mxCell id="0" />
        <mxCell id="1" parent="0" />
        <mxCell id="0vZHNJQTodUVFc7vjUTN-77" value="" style="rounded=0;whiteSpace=wrap;html=1;fillColor=none;strokeColor=none;" vertex="1" parent="1">
          <mxGeometry x="110" y="430" width="580" height="260" as="geometry" />
        </mxCell>
        <mxCell id="0vZHNJQTodUVFc7vjUTN-3" value="" style="whiteSpace=wrap;html=1;aspect=fixed;strokeColor=#999999;strokeWidth=0.5;dashed=1;" vertex="1" parent="1">
          <mxGeometry x="320" y="440" width="80" height="80" as="geometry" />
        </mxCell>
        <mxCell id="0vZHNJQTodUVFc7vjUTN-4" value="" style="whiteSpace=wrap;html=1;aspect=fixed;strokeColor=#999999;strokeWidth=0.5;dashed=1;" vertex="1" parent="1">
          <mxGeometry x="400" y="440" width="80" height="80" as="geometry" />
        </mxCell>
        <mxCell id="0vZHNJQTodUVFc7vjUTN-7" value="" style="whiteSpace=wrap;html=1;aspect=fixed;strokeColor=#999999;strokeWidth=0.5;dashed=1;" vertex="1" parent="1">
          <mxGeometry x="320" y="600" width="80" height="80" as="geometry" />
        </mxCell>
        <mxCell id="0vZHNJQTodUVFc7vjUTN-8" value="" style="whiteSpace=wrap;html=1;aspect=fixed;strokeColor=#999999;strokeWidth=0.5;dashed=1;" vertex="1" parent="1">
          <mxGeometry x="400" y="600" width="80" height="80" as="geometry" />
        </mxCell>
        <mxCell id="0vZHNJQTodUVFc7vjUTN-19" value="" style="whiteSpace=wrap;html=1;aspect=fixed;strokeWidth=0.5;dashed=1;strokeColor=#999999;fillColor=#E6E6E6;" vertex="1" parent="1">
          <mxGeometry x="320" y="520" width="80" height="80" as="geometry" />
        </mxCell>
        <mxCell id="0vZHNJQTodUVFc7vjUTN-20" value="" style="whiteSpace=wrap;html=1;aspect=fixed;strokeWidth=0.5;dashed=1;strokeColor=#999999;fillColor=#E6E6E6;" vertex="1" parent="1">
          <mxGeometry x="400" y="520" width="80" height="80" as="geometry" />
        </mxCell>
        <mxCell id="0vZHNJQTodUVFc7vjUTN-28" style="edgeStyle=orthogonalEdgeStyle;rounded=0;orthogonalLoop=1;jettySize=auto;html=1;exitX=0.5;exitY=1;exitDx=0;exitDy=0;entryX=0.5;entryY=0;entryDx=0;entryDy=0;fillColor=#f5f5f5;strokeColor=#999999;" edge="1" parent="1">
          <mxGeometry relative="1" as="geometry">
            <mxPoint x="357" y="490" as="sourcePoint" />
            <mxPoint x="357" y="550" as="targetPoint" />
          </mxGeometry>
        </mxCell>
        <mxCell id="0vZHNJQTodUVFc7vjUTN-25" style="edgeStyle=orthogonalEdgeStyle;rounded=0;orthogonalLoop=1;jettySize=auto;html=1;exitX=0.5;exitY=0;exitDx=0;exitDy=0;entryX=0.5;entryY=1;entryDx=0;entryDy=0;fillColor=#f5f5f5;strokeColor=#999999;" edge="1" parent="1">
          <mxGeometry relative="1" as="geometry">
            <mxPoint x="363" y="630" as="sourcePoint" />
            <mxPoint x="363" y="570" as="targetPoint" />
          </mxGeometry>
        </mxCell>
        <mxCell id="0vZHNJQTodUVFc7vjUTN-23" style="edgeStyle=orthogonalEdgeStyle;rounded=0;orthogonalLoop=1;jettySize=auto;html=1;exitX=1;exitY=0.5;exitDx=0;exitDy=0;entryX=0;entryY=0.5;entryDx=0;entryDy=0;strokeColor=#990000;" edge="1" parent="1">
          <mxGeometry relative="1" as="geometry">
            <mxPoint x="370.00000000000045" y="563" as="sourcePoint" />
            <mxPoint x="429.99999999999955" y="563" as="targetPoint" />
          </mxGeometry>
        </mxCell>
        <mxCell id="0vZHNJQTodUVFc7vjUTN-26" style="edgeStyle=orthogonalEdgeStyle;rounded=0;orthogonalLoop=1;jettySize=auto;html=1;exitX=0.5;exitY=1;exitDx=0;exitDy=0;entryX=0.5;entryY=0;entryDx=0;entryDy=0;fillColor=#f5f5f5;strokeColor=#999999;" edge="1" parent="1">
          <mxGeometry relative="1" as="geometry">
            <mxPoint x="357" y="570" as="sourcePoint" />
            <mxPoint x="357" y="630" as="targetPoint" />
          </mxGeometry>
        </mxCell>
        <mxCell id="0vZHNJQTodUVFc7vjUTN-27" style="edgeStyle=orthogonalEdgeStyle;rounded=0;orthogonalLoop=1;jettySize=auto;html=1;exitX=0.5;exitY=0;exitDx=0;exitDy=0;entryX=0.5;entryY=1;entryDx=0;entryDy=0;fillColor=#f5f5f5;strokeColor=#999999;" edge="1" parent="1">
          <mxGeometry relative="1" as="geometry">
            <mxPoint x="363" y="550" as="sourcePoint" />
            <mxPoint x="363" y="490" as="targetPoint" />
          </mxGeometry>
        </mxCell>
        <mxCell id="0vZHNJQTodUVFc7vjUTN-24" style="edgeStyle=orthogonalEdgeStyle;rounded=0;orthogonalLoop=1;jettySize=auto;html=1;exitX=0;exitY=0.5;exitDx=0;exitDy=0;entryX=1;entryY=0.5;entryDx=0;entryDy=0;strokeColor=#999999;" edge="1" parent="1">
          <mxGeometry relative="1" as="geometry">
            <mxPoint x="429.99999999999955" y="557" as="sourcePoint" />
            <mxPoint x="370.00000000000045" y="557" as="targetPoint" />
          </mxGeometry>
        </mxCell>
        <mxCell id="0vZHNJQTodUVFc7vjUTN-29" style="edgeStyle=orthogonalEdgeStyle;rounded=0;orthogonalLoop=1;jettySize=auto;html=1;exitX=0.5;exitY=1;exitDx=0;exitDy=0;entryX=0.5;entryY=0;entryDx=0;entryDy=0;fillColor=#f5f5f5;strokeColor=#999999;" edge="1" parent="1">
          <mxGeometry relative="1" as="geometry">
            <mxPoint x="437" y="490" as="sourcePoint" />
            <mxPoint x="437" y="550" as="targetPoint" />
          </mxGeometry>
        </mxCell>
        <mxCell id="0vZHNJQTodUVFc7vjUTN-30" style="edgeStyle=orthogonalEdgeStyle;rounded=0;orthogonalLoop=1;jettySize=auto;html=1;exitX=0.5;exitY=0;exitDx=0;exitDy=0;entryX=0.5;entryY=1;entryDx=0;entryDy=0;fillColor=#f5f5f5;strokeColor=#999999;" edge="1" parent="1">
          <mxGeometry relative="1" as="geometry">
            <mxPoint x="443" y="550" as="sourcePoint" />
            <mxPoint x="443" y="490" as="targetPoint" />
          </mxGeometry>
        </mxCell>
        <mxCell id="0vZHNJQTodUVFc7vjUTN-31" style="edgeStyle=orthogonalEdgeStyle;rounded=0;orthogonalLoop=1;jettySize=auto;html=1;exitX=0.5;exitY=1;exitDx=0;exitDy=0;entryX=0.5;entryY=0;entryDx=0;entryDy=0;fillColor=#f5f5f5;strokeColor=#999999;" edge="1" parent="1">
          <mxGeometry relative="1" as="geometry">
            <mxPoint x="437" y="570" as="sourcePoint" />
            <mxPoint x="437" y="630" as="targetPoint" />
          </mxGeometry>
        </mxCell>
        <mxCell id="0vZHNJQTodUVFc7vjUTN-32" style="edgeStyle=orthogonalEdgeStyle;rounded=0;orthogonalLoop=1;jettySize=auto;html=1;exitX=0.5;exitY=0;exitDx=0;exitDy=0;entryX=0.5;entryY=1;entryDx=0;entryDy=0;fillColor=#f5f5f5;strokeColor=#999999;" edge="1" parent="1">
          <mxGeometry relative="1" as="geometry">
            <mxPoint x="443" y="630" as="sourcePoint" />
            <mxPoint x="443" y="570" as="targetPoint" />
          </mxGeometry>
        </mxCell>
        <mxCell id="0vZHNJQTodUVFc7vjUTN-33" value="" style="whiteSpace=wrap;html=1;aspect=fixed;strokeColor=#999999;strokeWidth=0.5;dashed=1;" vertex="1" parent="1">
          <mxGeometry x="520" y="440" width="80" height="80" as="geometry" />
        </mxCell>
        <mxCell id="0vZHNJQTodUVFc7vjUTN-34" value="" style="whiteSpace=wrap;html=1;aspect=fixed;strokeColor=#999999;strokeWidth=0.5;dashed=1;fillColor=#E6E6E6;" vertex="1" parent="1">
          <mxGeometry x="600" y="440" width="80" height="80" as="geometry" />
        </mxCell>
        <mxCell id="0vZHNJQTodUVFc7vjUTN-35" value="" style="whiteSpace=wrap;html=1;aspect=fixed;strokeColor=#999999;strokeWidth=0.5;dashed=1;" vertex="1" parent="1">
          <mxGeometry x="520" y="600" width="80" height="80" as="geometry" />
        </mxCell>
        <mxCell id="0vZHNJQTodUVFc7vjUTN-36" value="" style="whiteSpace=wrap;html=1;aspect=fixed;strokeColor=#999999;strokeWidth=0.5;dashed=1;" vertex="1" parent="1">
          <mxGeometry x="600" y="600" width="80" height="80" as="geometry" />
        </mxCell>
        <mxCell id="0vZHNJQTodUVFc7vjUTN-37" value="" style="whiteSpace=wrap;html=1;aspect=fixed;strokeWidth=0.5;dashed=1;strokeColor=#999999;" vertex="1" parent="1">
          <mxGeometry x="520" y="520" width="80" height="80" as="geometry" />
        </mxCell>
        <mxCell id="0vZHNJQTodUVFc7vjUTN-38" value="" style="whiteSpace=wrap;html=1;aspect=fixed;strokeWidth=0.5;dashed=1;strokeColor=#999999;fillColor=#E6E6E6;" vertex="1" parent="1">
          <mxGeometry x="600" y="520" width="80" height="80" as="geometry" />
        </mxCell>
        <mxCell id="0vZHNJQTodUVFc7vjUTN-39" style="edgeStyle=orthogonalEdgeStyle;rounded=0;orthogonalLoop=1;jettySize=auto;html=1;exitX=0.5;exitY=1;exitDx=0;exitDy=0;entryX=0.5;entryY=0;entryDx=0;entryDy=0;fillColor=#f5f5f5;strokeColor=#999999;" edge="1" parent="1">
          <mxGeometry relative="1" as="geometry">
            <mxPoint x="557" y="490" as="sourcePoint" />
            <mxPoint x="557" y="550" as="targetPoint" />
          </mxGeometry>
        </mxCell>
        <mxCell id="0vZHNJQTodUVFc7vjUTN-42" style="edgeStyle=orthogonalEdgeStyle;rounded=0;orthogonalLoop=1;jettySize=auto;html=1;exitX=0.5;exitY=0;exitDx=0;exitDy=0;entryX=0.5;entryY=1;entryDx=0;entryDy=0;fillColor=#f5f5f5;strokeColor=#999999;" edge="1" parent="1">
          <mxGeometry relative="1" as="geometry">
            <mxPoint x="563" y="630" as="sourcePoint" />
            <mxPoint x="563" y="570" as="targetPoint" />
          </mxGeometry>
        </mxCell>
        <mxCell id="0vZHNJQTodUVFc7vjUTN-45" style="edgeStyle=orthogonalEdgeStyle;rounded=0;orthogonalLoop=1;jettySize=auto;html=1;exitX=1;exitY=0.5;exitDx=0;exitDy=0;entryX=0;entryY=0.5;entryDx=0;entryDy=0;strokeColor=#999999;" edge="1" parent="1">
          <mxGeometry relative="1" as="geometry">
            <mxPoint x="570.0000000000005" y="563" as="sourcePoint" />
            <mxPoint x="629.9999999999995" y="563" as="targetPoint" />
          </mxGeometry>
        </mxCell>
        <mxCell id="0vZHNJQTodUVFc7vjUTN-46" style="edgeStyle=orthogonalEdgeStyle;rounded=0;orthogonalLoop=1;jettySize=auto;html=1;exitX=0.5;exitY=1;exitDx=0;exitDy=0;entryX=0.5;entryY=0;entryDx=0;entryDy=0;fillColor=#f5f5f5;strokeColor=#999999;" edge="1" parent="1">
          <mxGeometry relative="1" as="geometry">
            <mxPoint x="557" y="570" as="sourcePoint" />
            <mxPoint x="557" y="630" as="targetPoint" />
          </mxGeometry>
        </mxCell>
        <mxCell id="0vZHNJQTodUVFc7vjUTN-47" style="edgeStyle=orthogonalEdgeStyle;rounded=0;orthogonalLoop=1;jettySize=auto;html=1;exitX=0.5;exitY=0;exitDx=0;exitDy=0;entryX=0.5;entryY=1;entryDx=0;entryDy=0;fillColor=#f5f5f5;strokeColor=#999999;" edge="1" parent="1">
          <mxGeometry relative="1" as="geometry">
            <mxPoint x="563" y="550" as="sourcePoint" />
            <mxPoint x="563" y="490" as="targetPoint" />
          </mxGeometry>
        </mxCell>
        <mxCell id="0vZHNJQTodUVFc7vjUTN-49" style="edgeStyle=orthogonalEdgeStyle;rounded=0;orthogonalLoop=1;jettySize=auto;html=1;exitX=0;exitY=0.5;exitDx=0;exitDy=0;entryX=1;entryY=0.5;entryDx=0;entryDy=0;strokeColor=#999999;" edge="1" parent="1">
          <mxGeometry relative="1" as="geometry">
            <mxPoint x="629.9999999999995" y="557" as="sourcePoint" />
            <mxPoint x="570.0000000000005" y="557" as="targetPoint" />
          </mxGeometry>
        </mxCell>
        <mxCell id="0vZHNJQTodUVFc7vjUTN-51" style="edgeStyle=orthogonalEdgeStyle;rounded=0;orthogonalLoop=1;jettySize=auto;html=1;exitX=0.5;exitY=1;exitDx=0;exitDy=0;entryX=0.5;entryY=0;entryDx=0;entryDy=0;fillColor=#f5f5f5;strokeColor=#999999;" edge="1" parent="1">
          <mxGeometry relative="1" as="geometry">
            <mxPoint x="637" y="490" as="sourcePoint" />
            <mxPoint x="637" y="550" as="targetPoint" />
          </mxGeometry>
        </mxCell>
        <mxCell id="0vZHNJQTodUVFc7vjUTN-52" style="edgeStyle=orthogonalEdgeStyle;rounded=0;orthogonalLoop=1;jettySize=auto;html=1;exitX=0.5;exitY=0;exitDx=0;exitDy=0;entryX=0.5;entryY=1;entryDx=0;entryDy=0;fillColor=#f5f5f5;strokeColor=#990000;" edge="1" parent="1">
          <mxGeometry relative="1" as="geometry">
            <mxPoint x="643" y="550" as="sourcePoint" />
            <mxPoint x="643" y="490" as="targetPoint" />
          </mxGeometry>
        </mxCell>
        <mxCell id="0vZHNJQTodUVFc7vjUTN-53" style="edgeStyle=orthogonalEdgeStyle;rounded=0;orthogonalLoop=1;jettySize=auto;html=1;exitX=0.5;exitY=1;exitDx=0;exitDy=0;entryX=0.5;entryY=0;entryDx=0;entryDy=0;fillColor=#f5f5f5;strokeColor=#999999;" edge="1" parent="1">
          <mxGeometry relative="1" as="geometry">
            <mxPoint x="637" y="570" as="sourcePoint" />
            <mxPoint x="637" y="630" as="targetPoint" />
          </mxGeometry>
        </mxCell>
        <mxCell id="0vZHNJQTodUVFc7vjUTN-54" style="edgeStyle=orthogonalEdgeStyle;rounded=0;orthogonalLoop=1;jettySize=auto;html=1;exitX=0.5;exitY=0;exitDx=0;exitDy=0;entryX=0.5;entryY=1;entryDx=0;entryDy=0;fillColor=#f5f5f5;strokeColor=#999999;" edge="1" parent="1">
          <mxGeometry relative="1" as="geometry">
            <mxPoint x="643" y="630" as="sourcePoint" />
            <mxPoint x="643" y="570" as="targetPoint" />
          </mxGeometry>
        </mxCell>
        <mxCell id="0vZHNJQTodUVFc7vjUTN-9" value="" style="ellipse;whiteSpace=wrap;html=1;aspect=fixed;strokeColor=#999999;" vertex="1" parent="1">
          <mxGeometry x="350" y="470" width="20" height="20" as="geometry" />
        </mxCell>
        <mxCell id="0vZHNJQTodUVFc7vjUTN-10" value="" style="ellipse;whiteSpace=wrap;html=1;aspect=fixed;strokeColor=#999999;" vertex="1" parent="1">
          <mxGeometry x="430" y="470" width="20" height="20" as="geometry" />
        </mxCell>
        <mxCell id="0vZHNJQTodUVFc7vjUTN-13" value="" style="ellipse;whiteSpace=wrap;html=1;aspect=fixed;strokeColor=#999999;" vertex="1" parent="1">
          <mxGeometry x="350" y="630" width="20" height="20" as="geometry" />
        </mxCell>
        <mxCell id="0vZHNJQTodUVFc7vjUTN-14" value="" style="ellipse;whiteSpace=wrap;html=1;aspect=fixed;strokeColor=#999999;" vertex="1" parent="1">
          <mxGeometry x="430" y="630" width="20" height="20" as="geometry" />
        </mxCell>
        <mxCell id="0vZHNJQTodUVFc7vjUTN-21" value="" style="ellipse;whiteSpace=wrap;html=1;aspect=fixed;" vertex="1" parent="1">
          <mxGeometry x="350" y="550" width="20" height="20" as="geometry" />
        </mxCell>
        <mxCell id="0vZHNJQTodUVFc7vjUTN-22" value="" style="ellipse;whiteSpace=wrap;html=1;aspect=fixed;" vertex="1" parent="1">
          <mxGeometry x="430" y="550" width="20" height="20" as="geometry" />
        </mxCell>
        <mxCell id="0vZHNJQTodUVFc7vjUTN-40" value="" style="ellipse;whiteSpace=wrap;html=1;aspect=fixed;strokeColor=#999999;" vertex="1" parent="1">
          <mxGeometry x="550" y="470" width="20" height="20" as="geometry" />
        </mxCell>
        <mxCell id="0vZHNJQTodUVFc7vjUTN-41" value="" style="ellipse;whiteSpace=wrap;html=1;aspect=fixed;strokeColor=#000000;" vertex="1" parent="1">
          <mxGeometry x="630" y="470" width="20" height="20" as="geometry" />
        </mxCell>
        <mxCell id="0vZHNJQTodUVFc7vjUTN-43" value="" style="ellipse;whiteSpace=wrap;html=1;aspect=fixed;strokeColor=#999999;" vertex="1" parent="1">
          <mxGeometry x="550" y="630" width="20" height="20" as="geometry" />
        </mxCell>
        <mxCell id="0vZHNJQTodUVFc7vjUTN-44" value="" style="ellipse;whiteSpace=wrap;html=1;aspect=fixed;strokeColor=#999999;" vertex="1" parent="1">
          <mxGeometry x="630" y="630" width="20" height="20" as="geometry" />
        </mxCell>
        <mxCell id="0vZHNJQTodUVFc7vjUTN-48" value="" style="ellipse;whiteSpace=wrap;html=1;aspect=fixed;strokeColor=#999999;" vertex="1" parent="1">
          <mxGeometry x="550" y="550" width="20" height="20" as="geometry" />
        </mxCell>
        <mxCell id="0vZHNJQTodUVFc7vjUTN-50" value="" style="ellipse;whiteSpace=wrap;html=1;aspect=fixed;" vertex="1" parent="1">
          <mxGeometry x="630" y="550" width="20" height="20" as="geometry" />
        </mxCell>
        <mxCell id="0vZHNJQTodUVFc7vjUTN-55" value="" style="whiteSpace=wrap;html=1;aspect=fixed;strokeColor=#999999;strokeWidth=0.5;dashed=1;" vertex="1" parent="1">
          <mxGeometry x="120" y="440" width="80" height="80" as="geometry" />
        </mxCell>
        <mxCell id="0vZHNJQTodUVFc7vjUTN-56" value="" style="whiteSpace=wrap;html=1;aspect=fixed;strokeColor=#999999;strokeWidth=0.5;dashed=1;" vertex="1" parent="1">
          <mxGeometry x="200" y="440" width="80" height="80" as="geometry" />
        </mxCell>
        <mxCell id="0vZHNJQTodUVFc7vjUTN-57" value="" style="whiteSpace=wrap;html=1;aspect=fixed;strokeColor=#999999;strokeWidth=0.5;dashed=1;" vertex="1" parent="1">
          <mxGeometry x="120" y="600" width="80" height="80" as="geometry" />
        </mxCell>
        <mxCell id="0vZHNJQTodUVFc7vjUTN-58" value="" style="whiteSpace=wrap;html=1;aspect=fixed;strokeColor=#999999;strokeWidth=0.5;dashed=1;" vertex="1" parent="1">
          <mxGeometry x="200" y="600" width="80" height="80" as="geometry" />
        </mxCell>
        <mxCell id="0vZHNJQTodUVFc7vjUTN-59" value="" style="whiteSpace=wrap;html=1;aspect=fixed;strokeWidth=0.5;dashed=1;strokeColor=#999999;fillColor=#FFFFFF;" vertex="1" parent="1">
          <mxGeometry x="120" y="520" width="80" height="80" as="geometry" />
        </mxCell>
        <mxCell id="0vZHNJQTodUVFc7vjUTN-60" value="" style="whiteSpace=wrap;html=1;aspect=fixed;strokeWidth=0.5;dashed=1;strokeColor=#999999;fillColor=#FFFFFF;" vertex="1" parent="1">
          <mxGeometry x="200" y="520" width="80" height="80" as="geometry" />
        </mxCell>
      </root>
    </mxGraphModel>
  </diagram>
</mxfile>
